<mxfile host="app.diagrams.net" modified="2021-06-12T15:31:07.048Z" agent="5.0 (Macintosh; Intel Mac OS X 10_15_7) AppleWebKit/537.36 (KHTML, like Gecko) Chrome/91.0.4472.77 Safari/537.36" etag="MX6E9XcogEirVbxE9got" version="14.7.7" type="github">
  <diagram id="fd27ZFoe0Dz7pAeNQXs9" name="Page-1">
    <mxGraphModel dx="946" dy="486" grid="1" gridSize="10" guides="1" tooltips="1" connect="1" arrows="1" fold="1" page="1" pageScale="1" pageWidth="827" pageHeight="1169" math="0" shadow="0">
      <root>
        <mxCell id="0" />
        <mxCell id="1" parent="0" />
        <mxCell id="HWMAIbPPif5SkAFqUAVd-1" value="还行吧" style="rounded=0;whiteSpace=wrap;html=1;fillColor=#dae8fc;strokeColor=#6c8ebf;" vertex="1" parent="1">
          <mxGeometry x="350" y="120" width="120" height="50" as="geometry" />
        </mxCell>
        <mxCell id="HWMAIbPPif5SkAFqUAVd-3" style="edgeStyle=orthogonalEdgeStyle;rounded=0;orthogonalLoop=1;jettySize=auto;html=1;entryX=0;entryY=0.25;entryDx=0;entryDy=0;" edge="1" parent="1" source="HWMAIbPPif5SkAFqUAVd-2" target="HWMAIbPPif5SkAFqUAVd-1">
          <mxGeometry relative="1" as="geometry" />
        </mxCell>
        <mxCell id="HWMAIbPPif5SkAFqUAVd-2" value="我局的还行" style="shape=parallelogram;perimeter=parallelogramPerimeter;whiteSpace=wrap;html=1;fixedSize=1;" vertex="1" parent="1">
          <mxGeometry x="190" y="180" width="120" height="60" as="geometry" />
        </mxCell>
      </root>
    </mxGraphModel>
  </diagram>
</mxfile>
